####
#
# OBJ File Generated by Meshlab
#
####
# Object Cloud_2.obj
#
# Vertices: 149
# Faces: 266
#
####
mtllib ./Cloud_2.obj.mtl

vn 0.570436 -0.312344 0.759634
v -0.328423 -0.202975 0.054850 0.752941 0.752941 0.752941
vn 0.164393 -0.977422 0.132744
v -0.543014 -0.572860 -0.298024 0.752941 0.752941 0.752941
vn 0.944340 -0.284035 -0.165973
v -0.089747 -0.155735 -0.432864 0.752941 0.752941 0.752941
vn -0.779874 -0.625937 0.000017
v -1.086650 -0.367030 -0.366450 0.752941 0.752941 0.752941
vn -0.033618 -0.619110 -0.784585
v -0.671359 -0.370526 -0.790297 0.752941 0.752941 0.752941
vn -0.588848 0.317977 -0.743067
v -0.945967 0.178688 -0.787751 0.752941 0.752941 0.752941
vn 0.310602 0.387643 -0.867905
v -0.472414 0.229173 -0.873591 0.752941 0.752941 0.752941
vn 0.029423 0.536624 0.843308
v -0.635283 0.264741 0.105227 0.752941 0.752941 0.752941
vn 0.778130 0.626317 0.047333
v -0.187739 0.342743 -0.366451 0.752941 0.752941 0.752941
vn -0.182171 0.977930 0.102311
v -0.731376 0.548573 -0.298025 0.752941 0.752941 0.752941
vn -0.950920 0.275271 0.141338
v -1.184640 0.131448 -0.300037 0.752941 0.752941 0.752941
vn -0.361229 -0.207126 0.909182
v -0.806911 -0.099424 0.155880 0.752941 0.752941 0.752941
vn 0.532608 -0.491147 0.689278
v 1.254610 -0.396107 1.001530 0.752941 0.752941 0.752941
vn 0.441217 -0.896538 -0.039342
v 1.177600 -0.704056 0.490656 0.752941 0.752941 0.752941
vn 0.815396 -0.485713 -0.314980
v 1.481810 -0.396106 0.292500 0.752941 0.752941 0.752941
vn -0.131001 -0.928797 0.346664
v 0.817467 -0.730053 0.683925 0.752941 0.752941 0.752941
vn -0.346003 -0.899564 -0.266584
v 0.639713 -0.704057 0.315887 0.752941 0.752941 0.752941
vn 0.998848 0.032726 0.035094
v 1.621210 0.013714 0.490656 0.752941 0.752941 0.752941
vn -0.505653 -0.498835 0.703903
v 0.510074 -0.396106 1.004550 0.752941 0.752941 0.752941
vn 0.291742 0.034575 0.955872
v 1.109230 0.013714 1.195340 0.752941 0.752941 0.752941
vn -0.804662 -0.529911 -0.267795
v 0.277124 -0.396106 0.297388 0.752941 0.752941 0.752941
vn -0.997782 -0.037090 0.055282
v 0.139318 -0.062361 0.490656 0.752941 0.752941 0.752941
vn 0.002023 -0.539068 -0.842260
v 0.877695 -0.396108 -0.142685 0.752941 0.752941 0.752941
vn -0.587785 -0.000001 -0.809017
v 0.463057 -0.024323 -0.083578 0.752941 0.752941 0.752941
vn 0.378261 0.033912 -0.925078
v 1.109230 0.013714 -0.214024 0.752941 0.752941 0.752941
vn -0.550630 0.355986 0.755037
v 0.465661 0.231915 1.056350 0.752941 0.752941 0.752941
vn 0.817990 0.496389 -0.290674
v 1.483400 0.347459 0.297387 0.752941 0.752941 0.752941
vn -0.032416 0.550442 -0.834244
v 0.882830 0.347461 -0.142685 0.752941 0.752941 0.752941
vn 0.346002 0.899564 -0.266584
v 1.120810 0.655410 0.315887 0.752941 0.752941 0.752941
vn -0.447429 0.894231 -0.012599
v 0.582925 0.655409 0.490656 0.752941 0.752941 0.752941
vn 0.111932 0.923996 0.365655
v 0.943059 0.681406 0.683925 0.752941 0.752941 0.752941
vn -0.805401 0.520922 -0.282788
v 0.278712 0.347459 0.292500 0.752941 0.752941 0.752941
vn 0.529392 0.518800 0.671260
v 1.250450 0.347459 1.004550 0.752941 0.752941 0.752941
vn 0.551219 -0.360838 0.752299
v 1.715580 -0.620398 0.544996 0.752941 0.752941 0.752941
vn 0.447432 -0.894229 -0.012601
v 1.598320 -1.043890 -0.020701 0.752941 0.752941 0.752941
vn 0.805398 -0.520928 -0.282787
v 1.902530 -0.735942 -0.218857 0.752941 0.752941 0.752941
vn -0.111923 -0.923999 0.365650
v 1.238190 -1.069890 0.172568 0.752941 0.752941 0.752941
vn -0.346003 -0.899564 -0.266583
v 1.060430 -1.043890 -0.195470 0.752941 0.752941 0.752941
vn 0.999988 0.004680 0.001414
v 2.041930 -0.326124 -0.020701 0.752941 0.752941 0.752941
vn -0.494437 -0.505956 0.706781
v 0.930792 -0.735943 0.493195 0.752941 0.752941 0.752941
vn 0.160344 0.249088 0.955115
v 1.405160 -0.195596 0.686465 0.752941 0.752941 0.752941
vn -0.817992 -0.496384 -0.290674
v 0.697843 -0.735943 -0.213969 0.752941 0.752941 0.752941
vn -0.999218 -0.035982 0.016384
v 0.560037 -0.402198 -0.020701 0.752941 0.752941 0.752941
vn 0.032410 -0.550444 -0.834243
v 1.298410 -0.735945 -0.654042 0.752941 0.752941 0.752941
vn -0.369083 -0.013305 -0.929301
v 1.072020 -0.402198 -0.725381 0.752941 0.752941 0.752941
vn 0.592641 0.005863 -0.805445
v 1.718190 -0.364161 -0.594935 0.752941 0.752941 0.752941
vn -0.571319 0.356847 0.739090
v 0.886380 -0.107923 0.544996 0.752941 0.752941 0.752941
vn 0.770714 0.504863 0.388733
v 1.904120 0.007621 0.172568 0.752941 0.752941 0.752941
vn 0.117212 0.944750 0.306119
v 1.363780 0.341569 0.172568 0.752941 0.752941 0.752941
vn 0.638111 0.710302 -0.297130
v 1.801370 0.154981 -0.195472 0.752941 0.752941 0.752941
vn 0.042705 0.653707 -0.755542
v 1.346850 0.117054 -0.589816 0.752941 0.752941 0.752941
vn -0.412620 0.910880 -0.006483
v 1.003640 0.315571 -0.020701 0.752941 0.752941 0.752941
vn -0.819098 0.482909 -0.309641
v 0.699431 0.007621 -0.218856 0.752941 0.752941 0.752941
vn -0.106298 -0.954236 -0.279526
v -1.421560 -0.860697 -0.213970 0.752941 0.752941 0.752941
vn 0.406032 -0.913744 0.014514
v -1.061420 -0.834699 -0.020701 0.752941 0.752941 0.752941
vn -0.248532 -0.645912 0.721824
v -1.525730 -0.652344 0.493194 0.752941 0.752941 0.752941
vn 0.562248 -0.492602 0.664245
v -0.984410 -0.526751 0.490171 0.752941 0.752941 0.752941
vn 0.815398 -0.485710 -0.314980
v -0.757210 -0.526750 -0.218857 0.752941 0.752941 0.752941
vn -0.659418 -0.685861 0.307836
v -1.859150 -0.674110 0.154070 0.752941 0.752941 0.752941
vn 0.999235 0.004048 0.038887
v -0.617815 -0.116931 -0.020701 0.752941 0.752941 0.752941
vn 0.322062 0.048363 0.945483
v -1.129790 -0.116930 0.683979 0.752941 0.752941 0.752941
vn -0.776248 -0.514660 -0.364094
v -1.961900 -0.526751 -0.213970 0.752941 0.752941 0.752941
vn -0.997888 -0.008742 0.064366
v -2.099700 -0.193006 -0.020701 0.752941 0.752941 0.752941
vn -0.005101 -0.535298 -0.844648
v -1.361330 -0.526752 -0.654042 0.752941 0.752941 0.752941
vn -0.587788 0.000001 -0.809015
v -1.775970 -0.154968 -0.594935 0.752941 0.752941 0.752941
vn 0.378263 0.033911 -0.925077
v -1.129790 -0.116930 -0.725381 0.752941 0.752941 0.752941
vn -0.581705 0.307972 0.752843
v -1.773360 0.101270 0.544995 0.752941 0.752941 0.752941
vn 0.662697 0.687249 0.297526
v -0.858369 0.364176 0.154070 0.752941 0.752941 0.752941
vn 0.786361 0.481196 -0.387411
v -0.755622 0.216815 -0.213970 0.752941 0.752941 0.752941
vn 0.106298 0.954236 -0.279526
v -1.295960 0.550762 -0.213970 0.752941 0.752941 0.752941
vn -0.025368 0.546863 -0.836838
v -1.356190 0.216817 -0.654042 0.752941 0.752941 0.752941
vn -0.414882 0.909206 0.034883
v -1.656100 0.524764 -0.020701 0.752941 0.752941 0.752941
vn -0.805404 0.520920 -0.282786
v -1.960310 0.216813 -0.218857 0.752941 0.752941 0.752941
vn 0.200234 0.700416 0.685072
v -1.191790 0.342409 0.493194 0.752941 0.752941 0.752941
vn 0.565777 -0.383071 0.730173
v -0.413117 0.092026 0.467645 0.752941 0.752941 0.752941
vn 0.233912 -0.961065 0.147103
v -0.661858 -0.336721 0.058615 0.752941 0.752941 0.752941
vn 0.784492 -0.350966 -0.511268
v -0.225804 0.094649 -0.339895 0.752941 0.752941 0.752941
vn 0.998884 -0.026393 0.039157
v -0.131396 0.346062 -0.020701 0.752941 0.752941 0.752941
vn -0.483406 -0.525271 0.700292
v -1.090600 -0.007720 0.422926 0.752941 0.752941 0.752941
vn 0.163209 0.274590 0.947609
v -0.681094 0.458742 0.589770 0.752941 0.752941 0.752941
vn -0.817988 -0.496389 -0.290678
v -1.291690 -0.007720 -0.187543 0.752941 0.752941 0.752941
vn -0.999218 -0.035983 0.016380
v -1.410660 0.280390 -0.020701 0.752941 0.752941 0.752941
vn 0.067172 -0.501961 -0.862278
v -0.773243 -0.007721 -0.567441 0.752941 0.752941 0.752941
vn -0.309313 -0.010301 -0.950904
v -0.968684 0.280390 -0.629025 0.752941 0.752941 0.752941
vn -0.569063 0.366008 0.736346
v -1.128940 0.534427 0.467645 0.752941 0.752941 0.752941
vn 0.742774 0.538616 0.397718
v -0.250360 0.634173 0.146141 0.752941 0.752941 0.752941
vn -0.152468 0.975201 0.160424
v -0.880196 0.963174 0.058614 0.752941 0.752941 0.752941
vn 0.641337 0.704967 -0.302833
v -0.339057 0.761383 -0.171574 0.752941 0.752941 0.752941
vn 0.081048 0.605062 -0.792042
v -0.731426 0.728641 -0.511998 0.752941 0.752941 0.752941
vn -0.803370 0.515792 -0.297583
v -1.290320 0.634170 -0.191761 0.752941 0.752941 0.752941
vn -0.343072 -0.906344 -0.246661
v -0.978685 -0.273562 -0.171573 0.752941 0.752941 0.752941
vn 0.588286 -0.353730 0.727183
v -0.373271 -0.645131 0.467644 0.752941 0.752941 0.752941
vn 0.187235 -0.977779 -0.094291
v -0.622012 -1.073880 -0.100016 0.752941 0.752941 0.752941
vn 0.798533 -0.334255 -0.500619
v -0.185957 -0.642508 -0.339895 0.752941 0.752941 0.752941
vn -0.238190 -0.699544 0.673724
v -0.875321 -0.853297 0.422926 0.752941 0.752941 0.752941
vn -0.773525 -0.633277 -0.024892
v -1.252160 -0.835293 -0.020701 0.752941 0.752941 0.752941
vn 0.998884 -0.026391 0.039158
v -0.091550 -0.391094 -0.020701 0.752941 0.752941 0.752941
vn -0.329007 -0.058010 0.942544
v -0.928838 -0.456766 0.587624 0.752941 0.752941 0.752941
vn 0.003558 -0.502231 -0.864726
v -0.733397 -0.744878 -0.567441 0.752941 0.752941 0.752941
vn -0.342544 -0.061730 -0.937472
v -0.928838 -0.456767 -0.629026 0.752941 0.752941 0.752941
vn 0.634350 0.707484 -0.311553
v -0.299211 0.024227 -0.171574 0.752941 0.752941 0.752941
vn 0.062416 0.487215 -0.871048
v -0.728964 -0.102983 -0.567441 0.752941 0.752941 0.752941
vn -0.164169 0.980965 -0.103712
v -0.840349 0.226018 -0.100016 0.752941 0.752941 0.752941
vn -0.813727 0.501388 -0.294037
v -1.250480 -0.102985 -0.191761 0.752941 0.752941 0.752941
vn -0.564911 0.510270 0.648460
v -1.054340 -0.102984 0.420316 0.752941 0.752941 0.752941
vn 0.253212 0.661981 0.705454
v -0.587039 0.005437 0.422926 0.752941 0.752941 0.752941
vn 0.776388 0.513341 0.365654
v -0.210514 -0.102984 0.146141 0.752941 0.752941 0.752941
vn -0.999156 -0.038021 0.015538
v -1.370810 -0.456767 -0.020701 0.752941 0.752941 0.752941
vn 0.164170 -0.980965 0.103712
v 1.210920 -0.027912 0.058615 0.752941 0.752941 0.752941
vn -0.634350 -0.707484 0.311554
v 0.669780 0.173878 0.130173 0.752941 0.752941 0.752941
vn -0.253212 -0.661981 -0.705453
v 0.957608 0.192668 -0.464327 0.752941 0.752941 0.752941
vn -0.776388 -0.513341 -0.365653
v 0.581083 0.301089 -0.187542 0.752941 0.752941 0.752941
vn -0.998884 0.026392 -0.039157
v 0.462119 0.589199 -0.020701 0.752941 0.752941 0.752941
vn -0.588285 0.353732 -0.727183
v 0.743840 0.843236 -0.509046 0.752941 0.752941 0.752941
vn 0.813726 -0.501390 0.294037
v 1.621050 0.301089 0.150360 0.752941 0.752941 0.752941
vn 0.999235 0.004049 -0.038891
v 1.741380 0.654871 -0.020701 0.752941 0.752941 0.752941
vn 0.324174 0.033995 0.945387
v 1.299410 0.654871 0.587624 0.752941 0.752941 0.752941
vn -0.062422 -0.487214 0.871049
v 1.099530 0.301088 0.526039 0.752941 0.752941 0.752941
vn -0.798531 0.334258 0.500619
v 0.556527 0.840613 0.298493 0.752941 0.752941 0.752941
vn 0.322062 0.048362 -0.945482
v 1.299410 0.654871 -0.629025 0.752941 0.752941 0.752941
vn 0.564910 -0.510271 -0.648460
v 1.424910 0.301089 -0.461717 0.752941 0.752941 0.752941
vn -0.029370 0.502121 0.864299
v 1.103970 0.942983 0.526039 0.752941 0.752941 0.752941
vn 0.765660 0.511375 0.390205
v 1.622420 0.942982 0.146142 0.752941 0.752941 0.752941
vn -0.193315 0.976146 0.098839
v 0.992581 1.271980 0.058614 0.752941 0.752941 0.752941
vn 0.666213 0.694690 -0.271231
v 1.533720 1.070190 -0.171573 0.752941 0.752941 0.752941
vn 0.190813 0.694812 -0.693417
v 1.245890 1.051400 -0.464328 0.752941 0.752941 0.752941
vn -0.136739 -0.934544 -0.328528
v 0.126698 -0.950012 -0.292990 0.752941 0.752941 0.752941
vn 0.433202 -0.900667 0.033694
v 0.634076 -0.913386 -0.020701 0.752941 0.752941 0.752941
vn -0.126019 -0.857700 0.498467
v 0.052713 -0.806391 0.479294 0.752941 0.752941 0.752941
vn -0.673899 -0.670969 0.309291
v -0.489814 -0.687138 0.225527 0.752941 0.752941 0.752941
vn -0.770134 -0.519326 -0.370396
v -0.634570 -0.479528 -0.292990 0.752941 0.752941 0.752941
vn -0.999224 0.000503 0.039385
v -0.828720 -0.009326 -0.020701 0.752941 0.752941 0.752941
vn -0.139724 -0.252888 -0.957353
v 0.068397 -0.193220 -1.017000 0.752941 0.752941 0.752941
vn -0.636991 -0.036235 -0.770019
v -0.372617 0.044264 -0.829717 0.752941 0.752941 0.752941
vn 0.805777 -0.517801 0.287413
v 1.062670 -0.479527 0.258474 0.752941 0.752941 0.752941
vn 0.999999 0.000954 0.001004
v 1.259060 0.097853 -0.020701 0.752941 0.752941 0.752941
vn 0.598488 0.008877 0.801083
v 0.802955 0.044264 0.788316 0.752941 0.752941 0.752941
vn 0.524906 -0.528773 -0.666987
v 0.742577 -0.479528 -0.740449 0.752941 0.752941 0.752941
vn 0.593006 0.045554 -0.803909
v 0.802955 0.044264 -0.829717 0.752941 0.752941 0.752941
vn -0.003661 0.527458 0.849573
v 0.218787 0.568057 0.871589 0.752941 0.752941 0.752941
vn 0.654781 0.704478 0.273812
v 0.920151 0.775665 0.225527 0.752941 0.752941 0.752941
vn 0.089762 0.963936 0.250541
v 0.303639 1.038540 0.251589 0.752941 0.752941 0.752941
vn -0.815398 0.485710 0.314980
v -0.632333 0.568054 0.258474 0.752941 0.752941 0.752941
vn -0.406031 0.913744 -0.014515
v -0.203739 1.001910 -0.020701 0.752941 0.752941 0.752941
vn -0.520982 0.519005 -0.677652
v -0.312239 0.568055 -0.740449 0.752941 0.752941 0.752941
vn 0.218247 0.685420 -0.694671
v 0.450410 0.744999 -0.744708 0.752941 0.752941 0.752941
vn 0.780662 0.528613 -0.333370
v 1.064910 0.568054 -0.292991 0.752941 0.752941 0.752941
vn -0.386690 -0.036754 0.921477
v -0.107412 -0.009325 0.972097 0.752941 0.752941 0.752941
vn 0.042353 -0.529808 0.847059
v 0.211551 -0.479529 0.871590 0.752941 0.752941 0.752941
# 149 vertices, 0 vertices normals


usemtl material_0
f 1//1 2//2 3//3
f 2//2 4//4 5//5
f 5//5 4//4 6//6
f 3//3 5//5 7//7
f 5//5 6//6 7//7
f 8//8 9//9 10//10
f 11//11 8//8 10//10
f 6//6 11//11 10//10
f 9//9 7//7 10//10
f 7//7 6//6 10//10
f 3//3 7//7 9//9
f 12//12 8//8 11//11
f 1//1 9//9 8//8
f 1//1 3//3 9//9
f 6//6 4//4 11//11
f 11//11 4//4 12//12
f 12//12 1//1 8//8
f 2//2 5//5 3//3
f 2//2 12//12 4//4
f 2//2 1//1 12//12
f 13//13 14//14 15//15
f 16//16 17//17 14//14
f 13//13 15//15 18//18
f 19//19 13//13 20//20
f 21//21 19//19 22//22
f 23//23 21//21 24//24
f 15//15 23//23 25//25
f 13//13 18//18 20//20
f 19//19 20//20 26//26
f 23//23 24//24 25//25
f 15//15 25//25 18//18
f 27//27 28//28 29//29
f 29//29 30//30 31//31
f 29//29 28//28 30//30
f 28//28 32//32 30//30
f 32//32 26//26 30//30
f 30//30 26//26 31//31
f 26//26 33//33 31//31
f 31//31 33//33 29//29
f 33//33 27//27 29//29
f 18//18 25//25 27//27
f 25//25 28//28 27//27
f 25//25 24//24 28//28
f 24//24 32//32 28//28
f 22//22 26//26 32//32
f 20//20 33//33 26//26
f 20//20 18//18 33//33
f 18//18 27//27 33//33
f 24//24 22//22 32//32
f 24//24 21//21 22//22
f 22//22 19//19 26//26
f 14//14 23//23 15//15
f 14//14 17//17 23//23
f 17//17 21//21 23//23
f 17//17 19//19 21//21
f 17//17 16//16 19//19
f 16//16 13//13 19//19
f 16//16 14//14 13//13
f 34//34 35//35 36//36
f 37//37 38//38 35//35
f 34//34 36//36 39//39
f 40//40 34//34 41//41
f 42//42 40//40 43//43
f 44//44 42//42 45//45
f 36//36 44//44 46//46
f 40//40 41//41 47//47
f 36//36 46//46 39//39
f 41//41 48//48 49//49
f 50//50 51//51 49//49
f 51//51 52//52 49//49
f 51//51 53//53 52//52
f 53//53 47//47 52//52
f 52//52 47//47 49//49
f 47//47 41//41 49//49
f 49//49 48//48 50//50
f 39//39 50//50 48//48
f 39//39 46//46 50//50
f 46//46 51//51 50//50
f 45//45 53//53 51//51
f 43//43 47//47 53//53
f 34//34 48//48 41//41
f 34//34 39//39 48//48
f 46//46 45//45 51//51
f 46//46 44//44 45//45
f 45//45 43//43 53//53
f 45//45 42//42 43//43
f 43//43 40//40 47//47
f 35//35 44//44 36//36
f 35//35 38//38 44//44
f 38//38 42//42 44//44
f 38//38 40//40 42//42
f 38//38 37//37 40//40
f 37//37 34//34 40//40
f 37//37 35//35 34//34
f 54//54 55//55 56//56
f 57//57 55//55 58//58
f 54//54 56//56 59//59
f 57//57 58//58 60//60
f 56//56 57//57 61//61
f 62//62 59//59 63//63
f 64//64 62//62 65//65
f 58//58 64//64 66//66
f 57//57 60//60 61//61
f 56//56 61//61 67//67
f 64//64 65//65 66//66
f 58//58 66//66 60//60
f 68//68 69//69 70//70
f 69//69 71//71 70//70
f 70//70 71//71 72//72
f 71//71 73//73 72//72
f 73//73 67//67 72//72
f 72//72 74//74 70//70
f 72//72 67//67 74//74
f 74//74 68//68 70//70
f 60//60 66//66 69//69
f 66//66 71//71 69//69
f 66//66 65//65 71//71
f 65//65 73//73 71//71
f 63//63 67//67 73//73
f 61//61 74//74 67//67
f 61//61 68//68 74//74
f 61//61 60//60 68//68
f 60//60 69//69 68//68
f 65//65 63//63 73//73
f 65//65 62//62 63//63
f 63//63 59//59 67//67
f 59//59 56//56 67//67
f 55//55 64//64 58//58
f 55//55 54//54 64//64
f 54//54 62//62 64//64
f 54//54 59//59 62//62
f 56//56 55//55 57//57
f 75//75 76//76 77//77
f 75//75 77//77 78//78
f 79//79 75//75 80//80
f 81//81 79//79 82//82
f 83//83 81//81 84//84
f 79//79 80//80 85//85
f 80//80 86//86 87//87
f 88//88 89//89 87//87
f 89//89 90//90 87//87
f 90//90 85//85 87//87
f 85//85 80//80 87//87
f 87//87 86//86 88//88
f 78//78 88//88 86//86
f 78//78 77//77 88//88
f 77//77 89//89 88//88
f 84//84 90//90 89//89
f 82//82 85//85 90//90
f 75//75 86//86 80//80
f 75//75 78//78 86//86
f 77//77 84//84 89//89
f 77//77 83//83 84//84
f 84//84 82//82 90//90
f 84//84 81//81 82//82
f 82//82 79//79 85//85
f 76//76 83//83 77//77
f 76//76 91//91 83//83
f 91//91 81//81 83//83
f 91//91 79//79 81//81
f 91//91 76//76 79//79
f 76//76 75//75 79//79
f 92//92 93//93 94//94
f 93//93 95//95 96//96
f 92//92 94//94 97//97
f 95//95 92//92 98//98
f 99//99 96//96 100//100
f 101//101 102//102 103//103
f 102//102 104//104 103//103
f 104//104 105//105 103//103
f 103//103 105//105 106//106
f 106//106 101//101 103//103
f 106//106 107//107 101//101
f 97//97 101//101 107//107
f 97//97 94//94 101//101
f 94//94 102//102 101//101
f 100//100 104//104 102//102
f 108//108 105//105 104//104
f 98//98 106//106 105//105
f 92//92 107//107 106//106
f 92//92 97//97 107//107
f 94//94 100//100 102//102
f 94//94 99//99 100//100
f 100//100 108//108 104//104
f 100//100 96//96 108//108
f 108//108 98//98 105//105
f 108//108 96//96 98//98
f 96//96 95//95 98//98
f 98//98 92//92 106//106
f 93//93 99//99 94//94
f 93//93 96//96 99//99
f 95//95 93//93 92//92
f 109//109 110//110 111//111
f 112//112 110//110 113//113
f 111//111 112//112 114//114
f 115//115 116//116 117//117
f 118//118 117//117 119//119
f 111//111 114//114 120//120
f 121//121 120//120 116//116
f 122//122 123//123 124//124
f 119//119 122//122 124//124
f 114//114 119//119 124//124
f 125//125 126//126 124//124
f 126//126 114//114 124//124
f 124//124 123//123 125//125
f 116//116 125//125 123//123
f 116//116 120//120 125//125
f 120//120 126//126 125//125
f 120//120 114//114 126//126
f 113//113 119//119 114//114
f 119//119 117//117 122//122
f 117//117 123//123 122//122
f 117//117 116//116 123//123
f 121//121 111//111 120//120
f 114//114 112//112 113//113
f 113//113 110//110 119//119
f 110//110 118//118 119//119
f 118//118 115//115 117//117
f 115//115 121//121 116//116
f 109//109 111//111 121//121
f 111//111 110//110 112//112
f 109//109 118//118 110//110
f 115//115 109//109 121//121
f 109//109 115//115 118//118
f 127//127 128//128 129//129
f 127//127 129//129 130//130
f 131//131 130//130 132//132
f 133//133 131//131 134//134
f 135//135 136//136 137//137
f 138//138 139//139 136//136
f 140//140 141//141 142//142
f 143//143 140//140 144//144
f 145//145 143//143 144//144
f 141//141 146//146 142//142
f 141//141 147//147 146//146
f 146//146 144//144 142//142
f 146//146 145//145 144//144
f 144//144 140//140 142//142
f 136//136 139//139 147//147
f 139//139 146//146 147//147
f 133//133 145//145 146//146
f 133//133 134//134 145//145
f 132//132 143//143 145//145
f 148//148 140//140 143//143
f 137//137 141//141 140//140
f 137//137 136//136 141//141
f 136//136 147//147 141//141
f 139//139 133//133 146//146
f 139//139 138//138 133//133
f 134//134 132//132 145//145
f 134//134 131//131 132//132
f 132//132 148//148 143//143
f 132//132 130//130 148//148
f 130//130 149//149 148//148
f 148//148 137//137 140//140
f 148//148 149//149 137//137
f 149//149 135//135 137//137
f 135//135 138//138 136//136
f 128//128 127//127 138//138
f 127//127 133//133 138//138
f 127//127 131//131 133//133
f 127//127 130//130 131//131
f 129//129 149//149 130//130
f 135//135 128//128 138//138
f 129//129 128//128 149//149
f 128//128 135//135 149//149
# 266 faces, 0 coords texture

# End of File
